<?xml version="1.0" encoding="utf-8" standalone="no"?>
<!DOCTYPE svg PUBLIC "-//W3C//DTD SVG 1.1//EN"
  "http://www.w3.org/Graphics/SVG/1.1/DTD/svg11.dtd">
<svg height="345.6pt" version="1.1" viewBox="0 0 460.8 345.6" width="460.8pt" xmlns="http://www.w3.org/2000/svg" xmlns:xlink="http://www.w3.org/1999/xlink">
 <metadata>
  <rdf:RDF xmlns:cc="http://creativecommons.org/ns#" xmlns:dc="http://purl.org/dc/elements/1.1/" xmlns:rdf="http://www.w3.org/1999/02/22-rdf-syntax-ns#">
   <cc:Work>
    <dc:type rdf:resource="http://purl.org/dc/dcmitype/StillImage"/>
    <dc:date>2021-10-29T21:41:56.598897</dc:date>
    <dc:format>image/svg+xml</dc:format>
    <dc:creator>
     <cc:Agent>
      <dc:title>Matplotlib v3.4.0, https://matplotlib.org/</dc:title>
     </cc:Agent>
    </dc:creator>
   </cc:Work>
  </rdf:RDF>
 </metadata>
 <defs>
  <style type="text/css">*{stroke-linecap:butt;stroke-linejoin:round;}</style>
 </defs>
 <g id="figure_1">
  <g id="patch_1">
   <path d="M 0 345.6 
L 460.8 345.6 
L 460.8 0 
L 0 0 
z
" style="fill:#ffffff;"/>
  </g>
  <g id="axes_1">
   <g id="patch_2">
    <path d="M 57.6 307.584 
L 414.72 307.584 
L 414.72 41.472 
L 57.6 41.472 
z
" style="fill:#ffffff;"/>
   </g>
   <g id="PolyCollection_1">
    <path clip-path="url(#pc1155e320a)" d="M 236.214127 295.488 
L 236.214127 295.488 
L 236.322381 295.488 
L 236.430636 295.488 
L 236.53889 295.488 
L 236.647144 295.488 
L 236.755398 295.488 
L 236.863653 295.488 
L 236.971907 295.488 
L 237.080161 295.488 
L 237.188416 295.488 
L 237.29667 295.488 
L 237.404924 295.488 
L 237.513178 295.488 
L 237.621433 295.488 
L 237.729687 295.488 
L 237.837941 295.488 
L 237.946195 295.488 
L 238.05445 295.488 
L 238.162704 295.488 
L 238.270958 295.488 
L 238.379212 295.488 
L 238.487467 295.488 
L 238.595721 295.488 
L 238.703975 295.488 
L 238.81223 295.488 
L 238.920484 295.488 
L 239.028738 295.488 
L 239.136992 295.488 
L 239.245247 295.488 
L 239.353501 295.488 
L 239.461755 295.488 
L 239.570009 295.488 
L 239.678264 295.488 
L 239.786518 295.488 
L 239.894772 295.488 
L 240.003026 295.488 
L 240.111281 295.488 
L 240.219535 295.488 
L 240.327789 295.488 
L 240.436044 295.488 
L 240.544298 295.488 
L 240.652552 295.488 
L 240.760806 295.488 
L 240.869061 295.488 
L 240.977315 295.488 
L 241.085569 295.488 
L 241.193823 295.488 
L 241.302078 295.488 
L 241.410332 295.488 
L 241.518586 295.488 
L 241.62684 295.488 
L 241.735095 295.488 
L 241.843349 295.488 
L 241.951603 295.488 
L 242.059858 295.488 
L 242.168112 295.488 
L 242.276366 295.488 
L 242.38462 295.488 
L 242.492875 295.488 
L 242.601129 295.488 
L 242.709383 295.488 
L 242.817637 295.488 
L 242.925892 295.488 
L 243.034146 295.488 
L 243.1424 295.488 
L 243.250654 295.488 
L 243.358909 295.488 
L 243.467163 295.488 
L 243.575417 295.488 
L 243.683672 295.488 
L 243.791926 295.488 
L 243.90018 295.488 
L 244.008434 295.488 
L 244.116689 295.488 
L 244.224943 295.488 
L 244.333197 295.488 
L 244.441451 295.488 
L 244.549706 295.488 
L 244.65796 295.488 
L 244.766214 295.488 
L 244.874468 295.488 
L 244.982723 295.488 
L 245.090977 295.488 
L 245.199231 295.488 
L 245.307486 295.488 
L 245.41574 295.488 
L 245.523994 295.488 
L 245.632248 295.488 
L 245.740503 295.488 
L 245.848757 295.488 
L 245.957011 295.488 
L 246.065265 295.488 
L 246.17352 295.488 
L 246.281774 295.488 
L 246.390028 295.488 
L 246.498282 295.488 
L 246.606537 295.488 
L 246.714791 295.488 
L 246.823045 295.488 
L 246.9313 295.488 
L 247.039554 295.488 
L 247.147808 295.488 
L 247.256062 295.488 
L 247.364317 295.488 
L 247.472571 295.488 
L 247.580825 295.488 
L 247.689079 295.488 
L 247.797334 295.488 
L 247.905588 295.488 
L 248.013842 295.488 
L 248.122096 295.488 
L 248.230351 295.488 
L 248.338605 295.488 
L 248.446859 295.488 
L 248.555114 295.488 
L 248.663368 295.488 
L 248.771622 295.488 
L 248.879876 295.488 
L 248.988131 295.488 
L 249.096385 295.488 
L 249.204639 295.488 
L 249.312893 295.488 
L 249.421148 295.488 
L 249.529402 295.488 
L 249.637656 295.488 
L 249.74591 295.488 
L 249.854165 295.488 
L 249.962419 295.488 
L 250.070673 295.488 
L 250.178928 295.488 
L 250.287182 295.488 
L 250.395436 295.488 
L 250.50369 295.488 
L 250.611945 295.488 
L 250.720199 295.488 
L 250.828453 295.488 
L 250.936707 295.488 
L 251.044962 295.488 
L 251.153216 295.488 
L 251.26147 295.488 
L 251.369724 295.488 
L 251.477979 295.488 
L 251.586233 295.488 
L 251.694487 295.488 
L 251.802742 295.488 
L 251.910996 295.488 
L 252.01925 295.488 
L 252.127504 295.488 
L 252.235759 295.488 
L 252.344013 295.488 
L 252.452267 295.488 
L 252.560521 295.488 
L 252.668776 295.488 
L 252.77703 295.488 
L 252.885284 295.488 
L 252.993538 295.488 
L 253.101793 295.488 
L 253.210047 295.488 
L 253.318301 295.488 
L 253.426556 295.488 
L 253.53481 295.488 
L 253.643064 295.488 
L 253.751318 295.488 
L 253.859573 295.488 
L 253.967827 295.488 
L 254.076081 295.488 
L 254.184335 295.488 
L 254.29259 295.488 
L 254.400844 295.488 
L 254.509098 295.488 
L 254.617352 295.488 
L 254.725607 295.488 
L 254.833861 295.488 
L 254.942115 295.488 
L 255.05037 295.488 
L 255.158624 295.488 
L 255.266878 295.488 
L 255.375132 295.488 
L 255.483387 295.488 
L 255.591641 295.488 
L 255.699895 295.488 
L 255.808149 295.488 
L 255.916404 295.488 
L 256.024658 295.488 
L 256.132912 295.488 
L 256.241166 295.488 
L 256.349421 295.488 
L 256.457675 295.488 
L 256.565929 295.488 
L 256.674184 295.488 
L 256.782438 295.488 
L 256.890692 295.488 
L 256.998946 295.488 
L 257.107201 295.488 
L 257.215455 295.488 
L 257.323709 295.488 
L 257.431963 295.488 
L 257.540218 295.488 
L 257.648472 295.488 
L 257.756726 295.488 
L 257.86498 295.488 
L 257.973235 295.488 
L 258.081489 295.488 
L 258.189743 295.488 
L 258.297998 295.488 
L 258.406252 295.488 
L 258.514506 295.488 
L 258.62276 295.488 
L 258.731015 295.488 
L 258.839269 295.488 
L 258.947523 295.488 
L 259.055777 295.488 
L 259.164032 295.488 
L 259.272286 295.488 
L 259.38054 295.488 
L 259.488794 295.488 
L 259.597049 295.488 
L 259.705303 295.488 
L 259.813557 295.488 
L 259.921812 295.488 
L 260.030066 295.488 
L 260.13832 295.488 
L 260.246574 295.488 
L 260.354829 295.488 
L 260.463083 295.488 
L 260.571337 295.488 
L 260.679591 295.488 
L 260.787846 295.488 
L 260.8961 295.488 
L 261.004354 295.488 
L 261.112608 295.488 
L 261.220863 295.488 
L 261.329117 295.488 
L 261.437371 295.488 
L 261.545626 295.488 
L 261.65388 295.488 
L 261.762134 295.488 
L 261.870388 295.488 
L 261.978643 295.488 
L 262.086897 295.488 
L 262.195151 295.488 
L 262.303405 295.488 
L 262.41166 295.488 
L 262.519914 295.488 
L 262.628168 295.488 
L 262.736422 295.488 
L 262.844677 295.488 
L 262.952931 295.488 
L 263.061185 295.488 
L 263.16944 295.488 
L 263.277694 295.488 
L 263.385948 295.488 
L 263.494202 295.488 
L 263.602457 295.488 
L 263.710711 295.488 
L 263.818965 295.488 
L 263.927219 295.488 
L 264.035474 295.488 
L 264.143728 295.488 
L 264.251982 295.488 
L 264.360236 295.488 
L 264.468491 295.488 
L 264.576745 295.488 
L 264.684999 295.488 
L 264.793254 295.488 
L 264.901508 295.488 
L 265.009762 295.488 
L 265.118016 295.488 
L 265.226271 295.488 
L 265.334525 295.488 
L 265.442779 295.488 
L 265.551033 295.488 
L 265.659288 295.488 
L 265.767542 295.488 
L 265.875796 295.488 
L 265.98405 295.488 
L 266.092305 295.488 
L 266.200559 295.488 
L 266.308813 295.488 
L 266.417068 295.488 
L 266.525322 295.488 
L 266.633576 295.488 
L 266.74183 295.488 
L 266.850085 295.488 
L 266.958339 295.488 
L 267.066593 295.488 
L 267.174847 295.488 
L 267.283102 295.488 
L 267.391356 295.488 
L 267.49961 295.488 
L 267.607864 295.488 
L 267.716119 295.488 
L 267.824373 295.488 
L 267.932627 295.488 
L 268.040882 295.488 
L 268.149136 295.488 
L 268.25739 295.488 
L 268.365644 295.488 
L 268.473899 295.488 
L 268.582153 295.488 
L 268.690407 295.488 
L 268.798661 295.488 
L 268.906916 295.488 
L 269.01517 295.488 
L 269.123424 295.488 
L 269.231678 295.488 
L 269.339933 295.488 
L 269.448187 295.488 
L 269.556441 295.488 
L 269.664696 295.488 
L 269.77295 295.488 
L 269.881204 295.488 
L 269.989458 295.488 
L 270.097713 295.488 
L 270.205967 295.488 
L 270.314221 295.488 
L 270.422475 295.488 
L 270.53073 295.488 
L 270.638984 295.488 
L 270.747238 295.488 
L 270.855492 295.488 
L 270.963747 295.488 
L 271.072001 295.488 
L 271.180255 295.488 
L 271.28851 295.488 
L 271.396764 295.488 
L 271.505018 295.488 
L 271.613272 295.488 
L 271.721527 295.488 
L 271.829781 295.488 
L 271.938035 295.488 
L 272.046289 295.488 
L 272.154544 295.488 
L 272.262798 295.488 
L 272.371052 295.488 
L 272.479306 295.488 
L 272.587561 295.488 
L 272.695815 295.488 
L 272.804069 295.488 
L 272.912324 295.488 
L 273.020578 295.488 
L 273.128832 295.488 
L 273.237086 295.488 
L 273.345341 295.488 
L 273.453595 295.488 
L 273.561849 295.488 
L 273.670103 295.488 
L 273.778358 295.488 
L 273.886612 295.488 
L 273.994866 295.488 
L 274.10312 295.488 
L 274.211375 295.488 
L 274.319629 295.488 
L 274.427883 295.488 
L 274.536138 295.488 
L 274.644392 295.488 
L 274.752646 295.488 
L 274.8609 295.488 
L 274.969155 295.488 
L 275.077409 295.488 
L 275.185663 295.488 
L 275.293917 295.488 
L 275.402172 295.488 
L 275.510426 295.488 
L 275.61868 295.488 
L 275.726934 295.488 
L 275.835189 295.488 
L 275.943443 295.488 
L 276.051697 295.488 
L 276.159951 295.488 
L 276.268206 295.488 
L 276.37646 295.488 
L 276.484714 295.488 
L 276.592969 295.488 
L 276.701223 295.488 
L 276.809477 295.488 
L 276.917731 295.488 
L 277.025986 295.488 
L 277.13424 295.488 
L 277.242494 295.488 
L 277.350748 295.488 
L 277.459003 295.488 
L 277.567257 295.488 
L 277.675511 295.488 
L 277.783765 295.488 
L 277.89202 295.488 
L 278.000274 295.488 
L 278.108528 295.488 
L 278.216783 295.488 
L 278.325037 295.488 
L 278.433291 295.488 
L 278.541545 295.488 
L 278.6498 295.488 
L 278.758054 295.488 
L 278.866308 295.488 
L 278.974562 295.488 
L 279.082817 295.488 
L 279.191071 295.488 
L 279.299325 295.488 
L 279.407579 295.488 
L 279.515834 295.488 
L 279.624088 295.488 
L 279.732342 295.488 
L 279.840597 295.488 
L 279.948851 295.488 
L 280.057105 295.488 
L 280.165359 295.488 
L 280.273614 295.488 
L 280.381868 295.488 
L 280.490122 295.488 
L 280.598376 295.488 
L 280.706631 295.488 
L 280.814885 295.488 
L 280.923139 295.488 
L 281.031393 295.488 
L 281.139648 295.488 
L 281.247902 295.488 
L 281.356156 295.488 
L 281.464411 295.488 
L 281.572665 295.488 
L 281.680919 295.488 
L 281.789173 295.488 
L 281.897428 295.488 
L 282.005682 295.488 
L 282.113936 295.488 
L 282.22219 295.488 
L 282.330445 295.488 
L 282.438699 295.488 
L 282.546953 295.488 
L 282.655207 295.488 
L 282.763462 295.488 
L 282.871716 295.488 
L 282.97997 295.488 
L 283.088225 295.488 
L 283.196479 295.488 
L 283.304733 295.488 
L 283.412987 295.488 
L 283.521242 295.488 
L 283.629496 295.488 
L 283.73775 295.488 
L 283.846004 295.488 
L 283.954259 295.488 
L 284.062513 295.488 
L 284.170767 295.488 
L 284.279021 295.488 
L 284.387276 295.488 
L 284.49553 295.488 
L 284.603784 295.488 
L 284.712039 295.488 
L 284.820293 295.488 
L 284.928547 295.488 
L 285.036801 295.488 
L 285.145056 295.488 
L 285.25331 295.488 
L 285.361564 295.488 
L 285.469818 295.488 
L 285.578073 295.488 
L 285.686327 295.488 
L 285.794581 295.488 
L 285.902835 295.488 
L 286.01109 295.488 
L 286.119344 295.488 
L 286.227598 295.488 
L 286.335853 295.488 
L 286.444107 295.488 
L 286.552361 295.488 
L 286.660615 295.488 
L 286.76887 295.488 
L 286.877124 295.488 
L 286.985378 295.488 
L 287.093632 295.488 
L 287.201887 295.488 
L 287.310141 295.488 
L 287.418395 295.488 
L 287.526649 295.488 
L 287.634904 295.488 
L 287.743158 295.488 
L 287.851412 295.488 
L 287.959667 295.488 
L 288.067921 295.488 
L 288.176175 295.488 
L 288.284429 295.488 
L 288.392684 295.488 
L 288.500938 295.488 
L 288.609192 295.488 
L 288.717446 295.488 
L 288.825701 295.488 
L 288.933955 295.488 
L 289.042209 295.488 
L 289.150463 295.488 
L 289.258718 295.488 
L 289.366972 295.488 
L 289.475226 295.488 
L 289.583481 295.488 
L 289.691735 295.488 
L 289.799989 295.488 
L 289.908243 295.488 
L 290.016498 295.488 
L 290.124752 295.488 
L 290.233006 295.488 
L 290.34126 295.488 
L 290.449515 295.488 
L 290.557769 295.488 
L 290.666023 295.488 
L 290.774277 295.488 
L 290.882532 295.488 
L 290.990786 295.488 
L 291.09904 295.488 
L 291.207295 295.488 
L 291.315549 295.488 
L 291.423803 295.488 
L 291.532057 295.488 
L 291.640312 295.488 
L 291.748566 295.488 
L 291.85682 295.488 
L 291.965074 295.488 
L 292.073329 295.488 
L 292.181583 295.488 
L 292.289837 295.488 
L 292.398091 295.488 
L 292.506346 295.488 
L 292.6146 295.488 
L 292.722854 295.488 
L 292.831109 295.488 
L 292.939363 295.488 
L 293.047617 295.488 
L 293.155871 295.488 
L 293.264126 295.488 
L 293.37238 295.488 
L 293.480634 295.488 
L 293.588888 295.488 
L 293.697143 295.488 
L 293.805397 295.488 
L 293.913651 295.488 
L 294.021905 295.488 
L 294.13016 295.488 
L 294.238414 295.488 
L 294.346668 295.488 
L 294.454923 295.488 
L 294.563177 295.488 
L 294.671431 295.488 
L 294.779685 295.488 
L 294.88794 295.488 
L 294.996194 295.488 
L 295.104448 295.488 
L 295.212702 295.488 
L 295.320957 295.488 
L 295.429211 295.488 
L 295.537465 295.488 
L 295.645719 295.488 
L 295.753974 295.488 
L 295.862228 295.488 
L 295.970482 295.488 
L 296.078737 295.488 
L 296.186991 295.488 
L 296.295245 295.488 
L 296.403499 295.488 
L 296.511754 295.488 
L 296.620008 295.488 
L 296.728262 295.488 
L 296.836516 295.488 
L 296.944771 295.488 
L 297.053025 295.488 
L 297.161279 295.488 
L 297.269533 295.488 
L 297.377788 295.488 
L 297.486042 295.488 
L 297.594296 295.488 
L 297.702551 295.488 
L 297.810805 295.488 
L 297.919059 295.488 
L 298.027313 295.488 
L 298.135568 295.488 
L 298.243822 295.488 
L 298.352076 295.488 
L 298.46033 295.488 
L 298.568585 295.488 
L 298.676839 295.488 
L 298.785093 295.488 
L 298.893347 295.488 
L 299.001602 295.488 
L 299.109856 295.488 
L 299.21811 295.488 
L 299.326365 295.488 
L 299.434619 295.488 
L 299.542873 295.488 
L 299.651127 295.488 
L 299.759382 295.488 
L 299.867636 295.488 
L 299.97589 295.488 
L 300.084144 295.488 
L 300.192399 295.488 
L 300.300653 295.488 
L 300.408907 295.488 
L 300.517161 295.488 
L 300.625416 295.488 
L 300.73367 295.488 
L 300.841924 295.488 
L 300.950179 295.488 
L 301.058433 295.488 
L 301.166687 295.488 
L 301.274941 295.488 
L 301.383196 295.488 
L 301.49145 295.488 
L 301.599704 295.488 
L 301.707958 295.488 
L 301.816213 295.488 
L 301.924467 295.488 
L 302.032721 295.488 
L 302.140975 295.488 
L 302.24923 295.488 
L 302.357484 295.488 
L 302.465738 295.488 
L 302.573993 295.488 
L 302.682247 295.488 
L 302.790501 295.488 
L 302.898755 295.488 
L 303.00701 295.488 
L 303.115264 295.488 
L 303.223518 295.488 
L 303.331772 295.488 
L 303.440027 295.488 
L 303.548281 295.488 
L 303.656535 295.488 
L 303.764789 295.488 
L 303.873044 295.488 
L 303.981298 295.488 
L 304.089552 295.488 
L 304.197807 295.488 
L 304.306061 295.488 
L 304.414315 295.488 
L 304.522569 295.488 
L 304.630824 295.488 
L 304.739078 295.488 
L 304.847332 295.488 
L 304.955586 295.488 
L 305.063841 295.488 
L 305.172095 295.488 
L 305.280349 295.488 
L 305.388603 295.488 
L 305.496858 295.488 
L 305.605112 295.488 
L 305.713366 295.488 
L 305.821621 295.488 
L 305.929875 295.488 
L 306.038129 295.488 
L 306.146383 295.488 
L 306.254638 295.488 
L 306.362892 295.488 
L 306.471146 295.488 
L 306.5794 295.488 
L 306.687655 295.488 
L 306.795909 295.488 
L 306.904163 295.488 
L 307.012417 295.488 
L 307.120672 295.488 
L 307.228926 295.488 
L 307.33718 295.488 
L 307.445435 295.488 
L 307.553689 295.488 
L 307.661943 295.488 
L 307.770197 295.488 
L 307.878452 295.488 
L 307.986706 295.488 
L 308.09496 295.488 
L 308.203214 295.488 
L 308.311469 295.488 
L 308.419723 295.488 
L 308.527977 295.488 
L 308.636231 295.488 
L 308.744486 295.488 
L 308.85274 295.488 
L 308.960994 295.488 
L 309.069249 295.488 
L 309.177503 295.488 
L 309.285757 295.488 
L 309.394011 295.488 
L 309.502266 295.488 
L 309.61052 295.488 
L 309.718774 295.488 
L 309.827028 295.488 
L 309.935283 295.488 
L 310.043537 295.488 
L 310.151791 295.488 
L 310.260045 295.488 
L 310.3683 295.488 
L 310.476554 295.488 
L 310.584808 295.488 
L 310.693063 295.488 
L 310.801317 295.488 
L 310.909571 295.488 
L 311.017825 295.488 
L 311.12608 295.488 
L 311.234334 295.488 
L 311.342588 295.488 
L 311.450842 295.488 
L 311.559097 295.488 
L 311.667351 295.488 
L 311.775605 295.488 
L 311.883859 295.488 
L 311.992114 295.488 
L 312.100368 295.488 
L 312.208622 295.488 
L 312.316877 295.488 
L 312.425131 295.488 
L 312.533385 295.488 
L 312.641639 295.488 
L 312.749894 295.488 
L 312.858148 295.488 
L 312.966402 295.488 
L 313.074656 295.488 
L 313.182911 295.488 
L 313.291165 295.488 
L 313.399419 295.488 
L 313.507673 295.488 
L 313.615928 295.488 
L 313.724182 295.488 
L 313.832436 295.488 
L 313.940691 295.488 
L 314.048945 295.488 
L 314.157199 295.488 
L 314.265453 295.488 
L 314.373708 295.488 
L 314.481962 295.488 
L 314.590216 295.488 
L 314.69847 295.488 
L 314.806725 295.488 
L 314.914979 295.488 
L 315.023233 295.488 
L 315.131487 295.488 
L 315.239742 295.488 
L 315.347996 295.488 
L 315.45625 295.488 
L 315.564505 295.488 
L 315.672759 295.488 
L 315.781013 295.488 
L 315.889267 295.488 
L 315.997522 295.488 
L 316.105776 295.488 
L 316.21403 295.488 
L 316.322284 295.488 
L 316.430539 295.488 
L 316.538793 295.488 
L 316.647047 295.488 
L 316.755301 295.488 
L 316.863556 295.488 
L 316.97181 295.488 
L 317.080064 295.488 
L 317.188319 295.488 
L 317.296573 295.488 
L 317.404827 295.488 
L 317.513081 295.488 
L 317.621336 295.488 
L 317.72959 295.488 
L 317.837844 295.488 
L 317.946098 295.488 
L 318.054353 295.488 
L 318.162607 295.488 
L 318.270861 295.488 
L 318.379115 295.488 
L 318.48737 295.488 
L 318.595624 295.488 
L 318.703878 295.488 
L 318.812133 295.488 
L 318.920387 295.488 
L 319.028641 295.488 
L 319.136895 295.488 
L 319.24515 295.488 
L 319.353404 295.488 
L 319.461658 295.488 
L 319.569912 295.488 
L 319.678167 295.488 
L 319.786421 295.488 
L 319.894675 295.488 
L 320.002929 295.488 
L 320.111184 295.488 
L 320.219438 295.488 
L 320.327692 295.488 
L 320.435947 295.488 
L 320.544201 295.488 
L 320.652455 295.488 
L 320.760709 295.488 
L 320.868964 295.488 
L 320.977218 295.488 
L 321.085472 295.488 
L 321.193726 295.488 
L 321.301981 295.488 
L 321.410235 295.488 
L 321.518489 295.488 
L 321.626743 295.488 
L 321.734998 295.488 
L 321.843252 295.488 
L 321.951506 295.488 
L 322.059761 295.488 
L 322.168015 295.488 
L 322.276269 295.488 
L 322.384523 295.488 
L 322.492778 295.488 
L 322.601032 295.488 
L 322.709286 295.488 
L 322.81754 295.488 
L 322.925795 295.488 
L 323.034049 295.488 
L 323.142303 295.488 
L 323.250557 295.488 
L 323.358812 295.488 
L 323.467066 295.488 
L 323.57532 295.488 
L 323.683575 295.488 
L 323.791829 295.488 
L 323.900083 295.488 
L 324.008337 295.488 
L 324.116592 295.488 
L 324.224846 295.488 
L 324.3331 295.488 
L 324.441354 295.488 
L 324.549609 295.488 
L 324.657863 295.488 
L 324.766117 295.488 
L 324.874371 295.488 
L 324.982626 295.488 
L 325.09088 295.488 
L 325.199134 295.488 
L 325.307389 295.488 
L 325.415643 295.488 
L 325.523897 295.488 
L 325.632151 295.488 
L 325.740406 295.488 
L 325.84866 295.488 
L 325.956914 295.488 
L 326.065168 295.488 
L 326.173423 295.488 
L 326.281677 295.488 
L 326.389931 295.488 
L 326.498185 295.488 
L 326.60644 295.488 
L 326.714694 295.488 
L 326.822948 295.488 
L 326.931203 295.488 
L 327.039457 295.488 
L 327.147711 295.488 
L 327.255965 295.488 
L 327.36422 295.488 
L 327.472474 295.488 
L 327.580728 295.488 
L 327.688982 295.488 
L 327.797237 295.488 
L 327.905491 295.488 
L 328.013745 295.488 
L 328.121999 295.488 
L 328.230254 295.488 
L 328.338508 295.488 
L 328.446762 295.488 
L 328.555017 295.488 
L 328.663271 295.488 
L 328.771525 295.488 
L 328.879779 295.488 
L 328.988034 295.488 
L 329.096288 295.488 
L 329.204542 295.488 
L 329.312796 295.488 
L 329.421051 295.488 
L 329.529305 295.488 
L 329.637559 295.488 
L 329.745813 295.488 
L 329.854068 295.488 
L 329.962322 295.488 
L 330.070576 295.488 
L 330.178831 295.488 
L 330.287085 295.488 
L 330.395339 295.488 
L 330.503593 295.488 
L 330.611848 295.488 
L 330.720102 295.488 
L 330.828356 295.488 
L 330.93661 295.488 
L 331.044865 295.488 
L 331.153119 295.488 
L 331.261373 295.488 
L 331.369627 295.488 
L 331.477882 295.488 
L 331.586136 295.488 
L 331.69439 295.488 
L 331.802645 295.488 
L 331.910899 295.488 
L 332.019153 295.488 
L 332.127407 295.488 
L 332.235662 295.488 
L 332.343916 295.488 
L 332.45217 295.488 
L 332.560424 295.488 
L 332.668679 295.488 
L 332.776933 295.488 
L 332.885187 295.488 
L 332.993441 295.488 
L 333.101696 295.488 
L 333.20995 295.488 
L 333.318204 295.488 
L 333.426459 295.488 
L 333.534713 295.488 
L 333.642967 295.488 
L 333.751221 295.488 
L 333.859476 295.488 
L 333.96773 295.488 
L 334.075984 295.488 
L 334.184238 295.488 
L 334.292493 295.488 
L 334.400747 295.488 
L 334.509001 295.488 
L 334.617255 295.488 
L 334.72551 295.488 
L 334.833764 295.488 
L 334.942018 295.488 
L 335.050273 295.488 
L 335.158527 295.488 
L 335.266781 295.488 
L 335.375035 295.488 
L 335.48329 295.488 
L 335.591544 295.488 
L 335.699798 295.488 
L 335.808052 295.488 
L 335.916307 295.488 
L 336.024561 295.488 
L 336.132815 295.488 
L 336.241069 295.488 
L 336.349324 295.488 
L 336.457578 295.488 
L 336.565832 295.488 
L 336.674087 295.488 
L 336.782341 295.488 
L 336.890595 295.488 
L 336.998849 295.488 
L 337.107104 295.488 
L 337.215358 295.488 
L 337.323612 295.488 
L 337.431866 295.488 
L 337.540121 295.488 
L 337.648375 295.488 
L 337.756629 295.488 
L 337.864883 295.488 
L 337.973138 295.488 
L 338.081392 295.488 
L 338.189646 295.488 
L 338.297901 295.488 
L 338.406155 295.488 
L 338.514409 295.488 
L 338.622663 295.488 
L 338.730918 295.488 
L 338.839172 295.488 
L 338.947426 295.488 
L 339.05568 295.488 
L 339.163935 295.488 
L 339.272189 295.488 
L 339.380443 295.488 
L 339.488697 295.488 
L 339.596952 295.488 
L 339.705206 295.488 
L 339.81346 295.488 
L 339.921715 295.488 
L 340.029969 295.488 
L 340.138223 295.488 
L 340.246477 295.488 
L 340.354732 295.488 
L 340.462986 295.488 
L 340.57124 295.488 
L 340.679494 295.488 
L 340.787749 295.488 
L 340.896003 295.488 
L 341.004257 295.488 
L 341.112511 295.488 
L 341.220766 295.488 
L 341.32902 295.488 
L 341.437274 295.488 
L 341.545529 295.488 
L 341.653783 295.488 
L 341.762037 295.488 
L 341.870291 295.488 
L 341.978546 295.488 
L 342.0868 295.488 
L 342.195054 295.488 
L 342.303308 295.488 
L 342.411563 295.488 
L 342.519817 295.488 
L 342.628071 295.488 
L 342.736325 295.488 
L 342.84458 295.488 
L 342.952834 295.488 
L 343.061088 295.488 
L 343.169343 295.488 
L 343.277597 295.488 
L 343.385851 295.488 
L 343.494105 295.488 
L 343.60236 295.488 
L 343.710614 295.488 
L 343.818868 295.488 
L 343.927122 295.488 
L 344.035377 295.488 
L 344.143631 295.488 
L 344.251885 295.488 
L 344.360139 295.488 
L 344.360139 188.182932 
L 344.360139 188.182932 
L 344.251885 188.39765 
L 344.143631 188.612152 
L 344.035377 188.82644 
L 343.927122 189.040512 
L 343.818868 189.254369 
L 343.710614 189.468012 
L 343.60236 189.681439 
L 343.494105 189.894651 
L 343.385851 190.107648 
L 343.277597 190.32043 
L 343.169343 190.532997 
L 343.061088 190.745349 
L 342.952834 190.957486 
L 342.84458 191.169408 
L 342.736325 191.381115 
L 342.628071 191.592607 
L 342.519817 191.803884 
L 342.411563 192.014945 
L 342.303308 192.225792 
L 342.195054 192.436424 
L 342.0868 192.64684 
L 341.978546 192.857042 
L 341.870291 193.067028 
L 341.762037 193.2768 
L 341.653783 193.486356 
L 341.545529 193.695698 
L 341.437274 193.904824 
L 341.32902 194.113736 
L 341.220766 194.322432 
L 341.112511 194.530913 
L 341.004257 194.73918 
L 340.896003 194.947231 
L 340.787749 195.155067 
L 340.679494 195.362688 
L 340.57124 195.570094 
L 340.462986 195.777285 
L 340.354732 195.984261 
L 340.246477 196.191022 
L 340.138223 196.397568 
L 340.029969 196.603899 
L 339.921715 196.810015 
L 339.81346 197.015916 
L 339.705206 197.221601 
L 339.596952 197.427072 
L 339.488697 197.632328 
L 339.380443 197.837368 
L 339.272189 198.042194 
L 339.163935 198.246804 
L 339.05568 198.4512 
L 338.947426 198.65538 
L 338.839172 198.859346 
L 338.730918 199.063096 
L 338.622663 199.266632 
L 338.514409 199.469952 
L 338.406155 199.673057 
L 338.297901 199.875948 
L 338.189646 200.078623 
L 338.081392 200.281083 
L 337.973138 200.483328 
L 337.864883 200.685358 
L 337.756629 200.887173 
L 337.648375 201.088773 
L 337.540121 201.290158 
L 337.431866 201.491328 
L 337.323612 201.692283 
L 337.215358 201.893023 
L 337.107104 202.093548 
L 336.998849 202.293857 
L 336.890595 202.493952 
L 336.782341 202.693832 
L 336.674087 202.893496 
L 336.565832 203.092946 
L 336.457578 203.29218 
L 336.349324 203.4912 
L 336.241069 203.690004 
L 336.132815 203.888594 
L 336.024561 204.086968 
L 335.916307 204.285128 
L 335.808052 204.483072 
L 335.699798 204.680801 
L 335.591544 204.878316 
L 335.48329 205.075615 
L 335.375035 205.272699 
L 335.266781 205.469568 
L 335.158527 205.666222 
L 335.050273 205.862661 
L 334.942018 206.058885 
L 334.833764 206.254894 
L 334.72551 206.450688 
L 334.617255 206.646267 
L 334.509001 206.841631 
L 334.400747 207.03678 
L 334.292493 207.231713 
L 334.184238 207.426432 
L 334.075984 207.620936 
L 333.96773 207.815224 
L 333.859476 208.009298 
L 333.751221 208.203156 
L 333.642967 208.3968 
L 333.534713 208.590228 
L 333.426459 208.783442 
L 333.318204 208.97644 
L 333.20995 209.169224 
L 333.101696 209.361792 
L 332.993441 209.554145 
L 332.885187 209.746284 
L 332.776933 209.938207 
L 332.668679 210.129915 
L 332.560424 210.321408 
L 332.45217 210.512686 
L 332.343916 210.703749 
L 332.235662 210.894597 
L 332.127407 211.08523 
L 332.019153 211.275648 
L 331.910899 211.465851 
L 331.802645 211.655839 
L 331.69439 211.845612 
L 331.586136 212.035169 
L 331.477882 212.224512 
L 331.369627 212.41364 
L 331.261373 212.602552 
L 331.153119 212.79125 
L 331.044865 212.979732 
L 330.93661 213.168 
L 330.828356 213.356052 
L 330.720102 213.54389 
L 330.611848 213.731512 
L 330.503593 213.91892 
L 330.395339 214.106112 
L 330.287085 214.293089 
L 330.178831 214.479852 
L 330.070576 214.666399 
L 329.962322 214.852731 
L 329.854068 215.038848 
L 329.745813 215.22475 
L 329.637559 215.410437 
L 329.529305 215.595909 
L 329.421051 215.781166 
L 329.312796 215.966208 
L 329.204542 216.151035 
L 329.096288 216.335647 
L 328.988034 216.520044 
L 328.879779 216.704225 
L 328.771525 216.888192 
L 328.663271 217.071944 
L 328.555017 217.25548 
L 328.446762 217.438802 
L 328.338508 217.621908 
L 328.230254 217.8048 
L 328.121999 217.987476 
L 328.013745 218.169938 
L 327.905491 218.352184 
L 327.797237 218.534216 
L 327.688982 218.716032 
L 327.580728 218.897633 
L 327.472474 219.07902 
L 327.36422 219.260191 
L 327.255965 219.441147 
L 327.147711 219.621888 
L 327.039457 219.802414 
L 326.931203 219.982725 
L 326.822948 220.162821 
L 326.714694 220.342702 
L 326.60644 220.522368 
L 326.498185 220.701819 
L 326.389931 220.881055 
L 326.281677 221.060076 
L 326.173423 221.238881 
L 326.065168 221.417472 
L 325.956914 221.595848 
L 325.84866 221.774008 
L 325.740406 221.951954 
L 325.632151 222.129684 
L 325.523897 222.3072 
L 325.415643 222.4845 
L 325.307389 222.661586 
L 325.199134 222.838456 
L 325.09088 223.015112 
L 324.982626 223.191552 
L 324.874371 223.367777 
L 324.766117 223.543788 
L 324.657863 223.719583 
L 324.549609 223.895163 
L 324.441354 224.070528 
L 324.3331 224.245678 
L 324.224846 224.420613 
L 324.116592 224.595333 
L 324.008337 224.769838 
L 323.900083 224.944128 
L 323.791829 225.118203 
L 323.683575 225.292063 
L 323.57532 225.465708 
L 323.467066 225.639137 
L 323.358812 225.812352 
L 323.250557 225.985352 
L 323.142303 226.158136 
L 323.034049 226.330706 
L 322.925795 226.50306 
L 322.81754 226.6752 
L 322.709286 226.847124 
L 322.601032 227.018834 
L 322.492778 227.190328 
L 322.384523 227.361608 
L 322.276269 227.532672 
L 322.168015 227.703521 
L 322.059761 227.874156 
L 321.951506 228.044575 
L 321.843252 228.214779 
L 321.734998 228.384768 
L 321.626743 228.554542 
L 321.518489 228.724101 
L 321.410235 228.893445 
L 321.301981 229.062574 
L 321.193726 229.231488 
L 321.085472 229.400187 
L 320.977218 229.568671 
L 320.868964 229.73694 
L 320.760709 229.904993 
L 320.652455 230.072832 
L 320.544201 230.240456 
L 320.435947 230.407864 
L 320.327692 230.575058 
L 320.219438 230.742036 
L 320.111184 230.9088 
L 320.002929 231.075348 
L 319.894675 231.241682 
L 319.786421 231.4078 
L 319.678167 231.573704 
L 319.569912 231.739392 
L 319.461658 231.904865 
L 319.353404 232.070124 
L 319.24515 232.235167 
L 319.136895 232.399995 
L 319.028641 232.564608 
L 318.920387 232.729006 
L 318.812133 232.893189 
L 318.703878 233.057157 
L 318.595624 233.22091 
L 318.48737 233.384448 
L 318.379115 233.547771 
L 318.270861 233.710879 
L 318.162607 233.873772 
L 318.054353 234.036449 
L 317.946098 234.198912 
L 317.837844 234.36116 
L 317.72959 234.523192 
L 317.621336 234.68501 
L 317.513081 234.846612 
L 317.404827 235.008 
L 317.296573 235.169172 
L 317.188319 235.33013 
L 317.080064 235.490872 
L 316.97181 235.6514 
L 316.863556 235.811712 
L 316.755301 235.971809 
L 316.647047 236.131692 
L 316.538793 236.291359 
L 316.430539 236.450811 
L 316.322284 236.610048 
L 316.21403 236.76907 
L 316.105776 236.927877 
L 315.997522 237.086469 
L 315.889267 237.244846 
L 315.781013 237.403008 
L 315.672759 237.560955 
L 315.564505 237.718687 
L 315.45625 237.876204 
L 315.347996 238.033505 
L 315.239742 238.190592 
L 315.131487 238.347464 
L 315.023233 238.50412 
L 314.914979 238.660562 
L 314.806725 238.816788 
L 314.69847 238.9728 
L 314.590216 239.128596 
L 314.481962 239.284178 
L 314.373708 239.439544 
L 314.265453 239.594696 
L 314.157199 239.749632 
L 314.048945 239.904353 
L 313.940691 240.05886 
L 313.832436 240.213151 
L 313.724182 240.367227 
L 313.615928 240.521088 
L 313.507673 240.674734 
L 313.399419 240.828165 
L 313.291165 240.981381 
L 313.182911 241.134382 
L 313.074656 241.287168 
L 312.966402 241.439739 
L 312.858148 241.592095 
L 312.749894 241.744236 
L 312.641639 241.896161 
L 312.533385 242.047872 
L 312.425131 242.199368 
L 312.316877 242.350648 
L 312.208622 242.501714 
L 312.100368 242.652564 
L 311.992114 242.8032 
L 311.883859 242.95362 
L 311.775605 243.103826 
L 311.667351 243.253816 
L 311.559097 243.403592 
L 311.450842 243.553152 
L 311.342588 243.702497 
L 311.234334 243.851628 
L 311.12608 244.000543 
L 311.017825 244.149243 
L 310.909571 244.297728 
L 310.801317 244.445998 
L 310.693063 244.594053 
L 310.584808 244.741893 
L 310.476554 244.889518 
L 310.3683 245.036928 
L 310.260045 245.184123 
L 310.151791 245.331103 
L 310.043537 245.477868 
L 309.935283 245.624417 
L 309.827028 245.770752 
L 309.718774 245.916872 
L 309.61052 246.062776 
L 309.502266 246.208466 
L 309.394011 246.35394 
L 309.285757 246.4992 
L 309.177503 246.644244 
L 309.069249 246.789074 
L 308.960994 246.933688 
L 308.85274 247.078088 
L 308.744486 247.222272 
L 308.636231 247.366241 
L 308.527977 247.509996 
L 308.419723 247.653535 
L 308.311469 247.796859 
L 308.203214 247.939968 
L 308.09496 248.082862 
L 307.986706 248.225541 
L 307.878452 248.368005 
L 307.770197 248.510254 
L 307.661943 248.652288 
L 307.553689 248.794107 
L 307.445435 248.935711 
L 307.33718 249.0771 
L 307.228926 249.218273 
L 307.120672 249.359232 
L 307.012417 249.499976 
L 306.904163 249.640504 
L 306.795909 249.780818 
L 306.687655 249.920916 
L 306.5794 250.0608 
L 306.471146 250.200468 
L 306.362892 250.339922 
L 306.254638 250.47916 
L 306.146383 250.618184 
L 306.038129 250.756992 
L 305.929875 250.895585 
L 305.821621 251.033964 
L 305.713366 251.172127 
L 305.605112 251.310075 
L 305.496858 251.447808 
L 305.388603 251.585326 
L 305.280349 251.722629 
L 305.172095 251.859717 
L 305.063841 251.99659 
L 304.955586 252.133248 
L 304.847332 252.269691 
L 304.739078 252.405919 
L 304.630824 252.541932 
L 304.522569 252.677729 
L 304.414315 252.813312 
L 304.306061 252.94868 
L 304.197807 253.083832 
L 304.089552 253.21877 
L 303.981298 253.353492 
L 303.873044 253.488 
L 303.764789 253.622292 
L 303.656535 253.75637 
L 303.548281 253.890232 
L 303.440027 254.02388 
L 303.331772 254.157312 
L 303.223518 254.290529 
L 303.115264 254.423532 
L 303.00701 254.556319 
L 302.898755 254.688891 
L 302.790501 254.821248 
L 302.682247 254.95339 
L 302.573993 255.085317 
L 302.465738 255.217029 
L 302.357484 255.348526 
L 302.24923 255.479808 
L 302.140975 255.610875 
L 302.032721 255.741727 
L 301.924467 255.872364 
L 301.816213 256.002785 
L 301.707958 256.132992 
L 301.599704 256.262984 
L 301.49145 256.39276 
L 301.383196 256.522322 
L 301.274941 256.651668 
L 301.166687 256.7808 
L 301.058433 256.909716 
L 300.950179 257.038418 
L 300.841924 257.166904 
L 300.73367 257.295176 
L 300.625416 257.423232 
L 300.517161 257.551073 
L 300.408907 257.6787 
L 300.300653 257.806111 
L 300.192399 257.933307 
L 300.084144 258.060288 
L 299.97589 258.187054 
L 299.867636 258.313605 
L 299.759382 258.439941 
L 299.651127 258.566062 
L 299.542873 258.691968 
L 299.434619 258.817659 
L 299.326365 258.943135 
L 299.21811 259.068396 
L 299.109856 259.193441 
L 299.001602 259.318272 
L 298.893347 259.442888 
L 298.785093 259.567288 
L 298.676839 259.691474 
L 298.568585 259.815444 
L 298.46033 259.9392 
L 298.352076 260.06274 
L 298.243822 260.186066 
L 298.135568 260.309176 
L 298.027313 260.432072 
L 297.919059 260.554752 
L 297.810805 260.677217 
L 297.702551 260.799468 
L 297.594296 260.921503 
L 297.486042 261.043323 
L 297.377788 261.164928 
L 297.269533 261.286318 
L 297.161279 261.407493 
L 297.053025 261.528453 
L 296.944771 261.649198 
L 296.836516 261.769728 
L 296.728262 261.890043 
L 296.620008 262.010143 
L 296.511754 262.130028 
L 296.403499 262.249697 
L 296.295245 262.369152 
L 296.186991 262.488392 
L 296.078737 262.607416 
L 295.970482 262.726226 
L 295.862228 262.84482 
L 295.753974 262.9632 
L 295.645719 263.081364 
L 295.537465 263.199314 
L 295.429211 263.317048 
L 295.320957 263.434568 
L 295.212702 263.551872 
L 295.104448 263.668961 
L 294.996194 263.785836 
L 294.88794 263.902495 
L 294.779685 264.018939 
L 294.671431 264.135168 
L 294.563177 264.251182 
L 294.454923 264.366981 
L 294.346668 264.482565 
L 294.238414 264.597934 
L 294.13016 264.713088 
L 294.021905 264.828027 
L 293.913651 264.942751 
L 293.805397 265.05726 
L 293.697143 265.171553 
L 293.588888 265.285632 
L 293.480634 265.399496 
L 293.37238 265.513144 
L 293.264126 265.626578 
L 293.155871 265.739796 
L 293.047617 265.8528 
L 292.939363 265.965588 
L 292.831109 266.078162 
L 292.722854 266.19052 
L 292.6146 266.302664 
L 292.506346 266.414592 
L 292.398091 266.526305 
L 292.289837 266.637804 
L 292.181583 266.749087 
L 292.073329 266.860155 
L 291.965074 266.971008 
L 291.85682 267.081646 
L 291.748566 267.192069 
L 291.640312 267.302277 
L 291.532057 267.41227 
L 291.423803 267.522048 
L 291.315549 267.631611 
L 291.207295 267.740959 
L 291.09904 267.850092 
L 290.990786 267.959009 
L 290.882532 268.067712 
L 290.774277 268.1762 
L 290.666023 268.284472 
L 290.557769 268.39253 
L 290.449515 268.500372 
L 290.34126 268.608 
L 290.233006 268.715412 
L 290.124752 268.82261 
L 290.016498 268.929592 
L 289.908243 269.03636 
L 289.799989 269.142912 
L 289.691735 269.249249 
L 289.583481 269.355372 
L 289.475226 269.461279 
L 289.366972 269.566971 
L 289.258718 269.672448 
L 289.150463 269.77771 
L 289.042209 269.882757 
L 288.933955 269.987589 
L 288.825701 270.092206 
L 288.717446 270.196608 
L 288.609192 270.300795 
L 288.500938 270.404767 
L 288.392684 270.508524 
L 288.284429 270.612065 
L 288.176175 270.715392 
L 288.067921 270.818504 
L 287.959667 270.9214 
L 287.851412 271.024082 
L 287.743158 271.126548 
L 287.634904 271.2288 
L 287.526649 271.330836 
L 287.418395 271.432658 
L 287.310141 271.534264 
L 287.201887 271.635656 
L 287.093632 271.736832 
L 286.985378 271.837793 
L 286.877124 271.93854 
L 286.76887 272.039071 
L 286.660615 272.139387 
L 286.552361 272.239488 
L 286.444107 272.339374 
L 286.335853 272.439045 
L 286.227598 272.538501 
L 286.119344 272.637742 
L 286.01109 272.736768 
L 285.902835 272.835579 
L 285.794581 272.934175 
L 285.686327 273.032556 
L 285.578073 273.130721 
L 285.469818 273.228672 
L 285.361564 273.326408 
L 285.25331 273.423928 
L 285.145056 273.521234 
L 285.036801 273.618324 
L 284.928547 273.7152 
L 284.820293 273.81186 
L 284.712039 273.908306 
L 284.603784 274.004536 
L 284.49553 274.100552 
L 284.387276 274.196352 
L 284.279021 274.291937 
L 284.170767 274.387308 
L 284.062513 274.482463 
L 283.954259 274.577403 
L 283.846004 274.672128 
L 283.73775 274.766638 
L 283.629496 274.860933 
L 283.521242 274.955013 
L 283.412987 275.048878 
L 283.304733 275.142528 
L 283.196479 275.235963 
L 283.088225 275.329183 
L 282.97997 275.422188 
L 282.871716 275.514977 
L 282.763462 275.607552 
L 282.655207 275.699912 
L 282.546953 275.792056 
L 282.438699 275.883986 
L 282.330445 275.9757 
L 282.22219 276.0672 
L 282.113936 276.158484 
L 282.005682 276.249554 
L 281.897428 276.340408 
L 281.789173 276.431048 
L 281.680919 276.521472 
L 281.572665 276.611681 
L 281.464411 276.701676 
L 281.356156 276.791455 
L 281.247902 276.881019 
L 281.139648 276.970368 
L 281.031393 277.059502 
L 280.923139 277.148421 
L 280.814885 277.237125 
L 280.706631 277.325614 
L 280.598376 277.413888 
L 280.490122 277.501947 
L 280.381868 277.589791 
L 280.273614 277.67742 
L 280.165359 277.764833 
L 280.057105 277.852032 
L 279.948851 277.939016 
L 279.840597 278.025784 
L 279.732342 278.112338 
L 279.624088 278.198676 
L 279.515834 278.2848 
L 279.407579 278.370708 
L 279.299325 278.456402 
L 279.191071 278.54188 
L 279.082817 278.627144 
L 278.974562 278.712192 
L 278.866308 278.797025 
L 278.758054 278.881644 
L 278.6498 278.966047 
L 278.541545 279.050235 
L 278.433291 279.134208 
L 278.325037 279.217966 
L 278.216783 279.301509 
L 278.108528 279.384837 
L 278.000274 279.46795 
L 277.89202 279.550848 
L 277.783765 279.633531 
L 277.675511 279.715999 
L 277.567257 279.798252 
L 277.459003 279.880289 
L 277.350748 279.962112 
L 277.242494 280.04372 
L 277.13424 280.125112 
L 277.025986 280.20629 
L 276.917731 280.287252 
L 276.809477 280.368 
L 276.701223 280.448532 
L 276.592969 280.52885 
L 276.484714 280.608952 
L 276.37646 280.68884 
L 276.268206 280.768512 
L 276.159951 280.847969 
L 276.051697 280.927212 
L 275.943443 281.006239 
L 275.835189 281.085051 
L 275.726934 281.163648 
L 275.61868 281.24203 
L 275.510426 281.320197 
L 275.402172 281.398149 
L 275.293917 281.475886 
L 275.185663 281.553408 
L 275.077409 281.630715 
L 274.969155 281.707807 
L 274.8609 281.784684 
L 274.752646 281.861345 
L 274.644392 281.937792 
L 274.536138 282.014024 
L 274.427883 282.09004 
L 274.319629 282.165842 
L 274.211375 282.241428 
L 274.10312 282.3168 
L 273.994866 282.391956 
L 273.886612 282.466898 
L 273.778358 282.541624 
L 273.670103 282.616136 
L 273.561849 282.690432 
L 273.453595 282.764513 
L 273.345341 282.83838 
L 273.237086 282.912031 
L 273.128832 282.985467 
L 273.020578 283.058688 
L 272.912324 283.131694 
L 272.804069 283.204485 
L 272.695815 283.277061 
L 272.587561 283.349422 
L 272.479306 283.421568 
L 272.371052 283.493499 
L 272.262798 283.565215 
L 272.154544 283.636716 
L 272.046289 283.708001 
L 271.938035 283.779072 
L 271.829781 283.849928 
L 271.721527 283.920568 
L 271.613272 283.990994 
L 271.505018 284.061204 
L 271.396764 284.1312 
L 271.28851 284.20098 
L 271.180255 284.270546 
L 271.072001 284.339896 
L 270.963747 284.409032 
L 270.855492 284.477952 
L 270.747238 284.546657 
L 270.638984 284.615148 
L 270.53073 284.683423 
L 270.422475 284.751483 
L 270.314221 284.819328 
L 270.205967 284.886958 
L 270.097713 284.954373 
L 269.989458 285.021573 
L 269.881204 285.088558 
L 269.77295 285.155328 
L 269.664696 285.221883 
L 269.556441 285.288223 
L 269.448187 285.354348 
L 269.339933 285.420257 
L 269.231678 285.485952 
L 269.123424 285.551432 
L 269.01517 285.616696 
L 268.906916 285.681746 
L 268.798661 285.74658 
L 268.690407 285.8112 
L 268.582153 285.875604 
L 268.473899 285.939794 
L 268.365644 286.003768 
L 268.25739 286.067528 
L 268.149136 286.131072 
L 268.040882 286.194401 
L 267.932627 286.257516 
L 267.824373 286.320415 
L 267.716119 286.383099 
L 267.607864 286.445568 
L 267.49961 286.507822 
L 267.391356 286.569861 
L 267.283102 286.631685 
L 267.174847 286.693294 
L 267.066593 286.754688 
L 266.958339 286.815867 
L 266.850085 286.876831 
L 266.74183 286.93758 
L 266.633576 286.998113 
L 266.525322 287.058432 
L 266.417068 287.118536 
L 266.308813 287.178424 
L 266.200559 287.238098 
L 266.092305 287.297556 
L 265.98405 287.3568 
L 265.875796 287.415828 
L 265.767542 287.474642 
L 265.659288 287.53324 
L 265.551033 287.591624 
L 265.442779 287.649792 
L 265.334525 287.707745 
L 265.226271 287.765484 
L 265.118016 287.823007 
L 265.009762 287.880315 
L 264.901508 287.937408 
L 264.793254 287.994286 
L 264.684999 288.050949 
L 264.576745 288.107397 
L 264.468491 288.16363 
L 264.360236 288.219648 
L 264.251982 288.275451 
L 264.143728 288.331039 
L 264.035474 288.386412 
L 263.927219 288.441569 
L 263.818965 288.496512 
L 263.710711 288.55124 
L 263.602457 288.605752 
L 263.494202 288.66005 
L 263.385948 288.714132 
L 263.277694 288.768 
L 263.16944 288.821652 
L 263.061185 288.87509 
L 262.952931 288.928312 
L 262.844677 288.98132 
L 262.736422 289.034112 
L 262.628168 289.086689 
L 262.519914 289.139052 
L 262.41166 289.191199 
L 262.303405 289.243131 
L 262.195151 289.294848 
L 262.086897 289.34635 
L 261.978643 289.397637 
L 261.870388 289.448709 
L 261.762134 289.499566 
L 261.65388 289.550208 
L 261.545626 289.600635 
L 261.437371 289.650847 
L 261.329117 289.700844 
L 261.220863 289.750625 
L 261.112608 289.800192 
L 261.004354 289.849544 
L 260.8961 289.89868 
L 260.787846 289.947602 
L 260.679591 289.996308 
L 260.571337 290.0448 
L 260.463083 290.093076 
L 260.354829 290.141138 
L 260.246574 290.188984 
L 260.13832 290.236616 
L 260.030066 290.284032 
L 259.921812 290.331233 
L 259.813557 290.37822 
L 259.705303 290.424991 
L 259.597049 290.471547 
L 259.488794 290.517888 
L 259.38054 290.564014 
L 259.272286 290.609925 
L 259.164032 290.655621 
L 259.055777 290.701102 
L 258.947523 290.746368 
L 258.839269 290.791419 
L 258.731015 290.836255 
L 258.62276 290.880876 
L 258.514506 290.925281 
L 258.406252 290.969472 
L 258.297998 291.013448 
L 258.189743 291.057208 
L 258.081489 291.100754 
L 257.973235 291.144084 
L 257.86498 291.1872 
L 257.756726 291.2301 
L 257.648472 291.272786 
L 257.540218 291.315256 
L 257.431963 291.357512 
L 257.323709 291.399552 
L 257.215455 291.441377 
L 257.107201 291.482988 
L 256.998946 291.524383 
L 256.890692 291.565563 
L 256.782438 291.606528 
L 256.674184 291.647278 
L 256.565929 291.687813 
L 256.457675 291.728133 
L 256.349421 291.768238 
L 256.241166 291.808128 
L 256.132912 291.847803 
L 256.024658 291.887263 
L 255.916404 291.926508 
L 255.808149 291.965537 
L 255.699895 292.004352 
L 255.591641 292.042952 
L 255.483387 292.081336 
L 255.375132 292.119506 
L 255.266878 292.15746 
L 255.158624 292.1952 
L 255.05037 292.232724 
L 254.942115 292.270034 
L 254.833861 292.307128 
L 254.725607 292.344008 
L 254.617352 292.380672 
L 254.509098 292.417121 
L 254.400844 292.453356 
L 254.29259 292.489375 
L 254.184335 292.525179 
L 254.076081 292.560768 
L 253.967827 292.596142 
L 253.859573 292.631301 
L 253.751318 292.666245 
L 253.643064 292.700974 
L 253.53481 292.735488 
L 253.426556 292.769787 
L 253.318301 292.803871 
L 253.210047 292.83774 
L 253.101793 292.871393 
L 252.993538 292.904832 
L 252.885284 292.938056 
L 252.77703 292.971064 
L 252.668776 293.003858 
L 252.560521 293.036436 
L 252.452267 293.0688 
L 252.344013 293.100948 
L 252.235759 293.132882 
L 252.127504 293.1646 
L 252.01925 293.196104 
L 251.910996 293.227392 
L 251.802742 293.258465 
L 251.694487 293.289324 
L 251.586233 293.319967 
L 251.477979 293.350395 
L 251.369724 293.380608 
L 251.26147 293.410606 
L 251.153216 293.440389 
L 251.044962 293.469957 
L 250.936707 293.49931 
L 250.828453 293.528448 
L 250.720199 293.557371 
L 250.611945 293.586079 
L 250.50369 293.614572 
L 250.395436 293.642849 
L 250.287182 293.670912 
L 250.178928 293.69876 
L 250.070673 293.726392 
L 249.962419 293.75381 
L 249.854165 293.781012 
L 249.74591 293.808 
L 249.637656 293.834772 
L 249.529402 293.86133 
L 249.421148 293.887672 
L 249.312893 293.9138 
L 249.204639 293.939712 
L 249.096385 293.965409 
L 248.988131 293.990892 
L 248.879876 294.016159 
L 248.771622 294.041211 
L 248.663368 294.066048 
L 248.555114 294.09067 
L 248.446859 294.115077 
L 248.338605 294.139269 
L 248.230351 294.163246 
L 248.122096 294.187008 
L 248.013842 294.210555 
L 247.905588 294.233887 
L 247.797334 294.257004 
L 247.689079 294.279905 
L 247.580825 294.302592 
L 247.472571 294.325064 
L 247.364317 294.34732 
L 247.256062 294.369362 
L 247.147808 294.391188 
L 247.039554 294.4128 
L 246.9313 294.434196 
L 246.823045 294.455378 
L 246.714791 294.476344 
L 246.606537 294.497096 
L 246.498282 294.517632 
L 246.390028 294.537953 
L 246.281774 294.55806 
L 246.17352 294.577951 
L 246.065265 294.597627 
L 245.957011 294.617088 
L 245.848757 294.636334 
L 245.740503 294.655365 
L 245.632248 294.674181 
L 245.523994 294.692782 
L 245.41574 294.711168 
L 245.307486 294.729339 
L 245.199231 294.747295 
L 245.090977 294.765036 
L 244.982723 294.782561 
L 244.874468 294.799872 
L 244.766214 294.816968 
L 244.65796 294.833848 
L 244.549706 294.850514 
L 244.441451 294.866964 
L 244.333197 294.8832 
L 244.224943 294.89922 
L 244.116689 294.915026 
L 244.008434 294.930616 
L 243.90018 294.945992 
L 243.791926 294.961152 
L 243.683672 294.976097 
L 243.575417 294.990828 
L 243.467163 295.005343 
L 243.358909 295.019643 
L 243.250654 295.033728 
L 243.1424 295.047598 
L 243.034146 295.061253 
L 242.925892 295.074693 
L 242.817637 295.087918 
L 242.709383 295.100928 
L 242.601129 295.113723 
L 242.492875 295.126303 
L 242.38462 295.138668 
L 242.276366 295.150817 
L 242.168112 295.162752 
L 242.059858 295.174472 
L 241.951603 295.185976 
L 241.843349 295.197266 
L 241.735095 295.20834 
L 241.62684 295.2192 
L 241.518586 295.229844 
L 241.410332 295.240274 
L 241.302078 295.250488 
L 241.193823 295.260488 
L 241.085569 295.270272 
L 240.977315 295.279841 
L 240.869061 295.289196 
L 240.760806 295.298335 
L 240.652552 295.307259 
L 240.544298 295.315968 
L 240.436044 295.324462 
L 240.327789 295.332741 
L 240.219535 295.340805 
L 240.111281 295.348654 
L 240.003026 295.356288 
L 239.894772 295.363707 
L 239.786518 295.370911 
L 239.678264 295.3779 
L 239.570009 295.384673 
L 239.461755 295.391232 
L 239.353501 295.397576 
L 239.245247 295.403704 
L 239.136992 295.409618 
L 239.028738 295.415316 
L 238.920484 295.4208 
L 238.81223 295.426068 
L 238.703975 295.431122 
L 238.595721 295.43596 
L 238.487467 295.440584 
L 238.379212 295.444992 
L 238.270958 295.449185 
L 238.162704 295.453164 
L 238.05445 295.456927 
L 237.946195 295.460475 
L 237.837941 295.463808 
L 237.729687 295.466926 
L 237.621433 295.469829 
L 237.513178 295.472517 
L 237.404924 295.47499 
L 237.29667 295.477248 
L 237.188416 295.479291 
L 237.080161 295.481119 
L 236.971907 295.482732 
L 236.863653 295.484129 
L 236.755398 295.485312 
L 236.647144 295.48628 
L 236.53889 295.487032 
L 236.430636 295.48757 
L 236.322381 295.487892 
L 236.214127 295.488 
z
" style="fill:#008000;fill-opacity:0.3;"/>
   </g>
   <g id="matplotlib.axis_1">
    <g id="xtick_1">
     <g id="line2d_1">
      <path clip-path="url(#pc1155e320a)" d="M 73.832727 307.584 
L 73.832727 41.472 
" style="fill:none;stroke:#b0b0b0;stroke-dasharray:2.96,1.28;stroke-dashoffset:0;stroke-width:0.8;"/>
     </g>
     <g id="line2d_2">
      <defs>
       <path d="M 0 0 
L 0 3.5 
" id="m63a989414b" style="stroke:#000000;stroke-width:0.8;"/>
      </defs>
      <g>
       <use style="stroke:#000000;stroke-width:0.8;" x="73.832727" xlink:href="#m63a989414b" y="307.584"/>
      </g>
     </g>
     <g id="text_1">
      <!-- −1.5 -->
      <g transform="translate(61.691321 322.182437)scale(0.1 -0.1)">
       <defs>
        <path d="M 678 2272 
L 4684 2272 
L 4684 1741 
L 678 1741 
L 678 2272 
z
" id="DejaVuSans-2212" transform="scale(0.015625)"/>
        <path d="M 794 531 
L 1825 531 
L 1825 4091 
L 703 3866 
L 703 4441 
L 1819 4666 
L 2450 4666 
L 2450 531 
L 3481 531 
L 3481 0 
L 794 0 
L 794 531 
z
" id="DejaVuSans-31" transform="scale(0.015625)"/>
        <path d="M 684 794 
L 1344 794 
L 1344 0 
L 684 0 
L 684 794 
z
" id="DejaVuSans-2e" transform="scale(0.015625)"/>
        <path d="M 691 4666 
L 3169 4666 
L 3169 4134 
L 1269 4134 
L 1269 2991 
Q 1406 3038 1543 3061 
Q 1681 3084 1819 3084 
Q 2600 3084 3056 2656 
Q 3513 2228 3513 1497 
Q 3513 744 3044 326 
Q 2575 -91 1722 -91 
Q 1428 -91 1123 -41 
Q 819 9 494 109 
L 494 744 
Q 775 591 1075 516 
Q 1375 441 1709 441 
Q 2250 441 2565 725 
Q 2881 1009 2881 1497 
Q 2881 1984 2565 2268 
Q 2250 2553 1709 2553 
Q 1456 2553 1204 2497 
Q 953 2441 691 2322 
L 691 4666 
z
" id="DejaVuSans-35" transform="scale(0.015625)"/>
       </defs>
       <use xlink:href="#DejaVuSans-2212"/>
       <use x="83.789062" xlink:href="#DejaVuSans-31"/>
       <use x="147.412109" xlink:href="#DejaVuSans-2e"/>
       <use x="179.199219" xlink:href="#DejaVuSans-35"/>
      </g>
     </g>
    </g>
    <g id="xtick_2">
     <g id="line2d_3">
      <path clip-path="url(#pc1155e320a)" d="M 127.959861 307.584 
L 127.959861 41.472 
" style="fill:none;stroke:#b0b0b0;stroke-dasharray:2.96,1.28;stroke-dashoffset:0;stroke-width:0.8;"/>
     </g>
     <g id="line2d_4">
      <g>
       <use style="stroke:#000000;stroke-width:0.8;" x="127.959861" xlink:href="#m63a989414b" y="307.584"/>
      </g>
     </g>
     <g id="text_2">
      <!-- −1.0 -->
      <g transform="translate(115.818454 322.182437)scale(0.1 -0.1)">
       <defs>
        <path d="M 2034 4250 
Q 1547 4250 1301 3770 
Q 1056 3291 1056 2328 
Q 1056 1369 1301 889 
Q 1547 409 2034 409 
Q 2525 409 2770 889 
Q 3016 1369 3016 2328 
Q 3016 3291 2770 3770 
Q 2525 4250 2034 4250 
z
M 2034 4750 
Q 2819 4750 3233 4129 
Q 3647 3509 3647 2328 
Q 3647 1150 3233 529 
Q 2819 -91 2034 -91 
Q 1250 -91 836 529 
Q 422 1150 422 2328 
Q 422 3509 836 4129 
Q 1250 4750 2034 4750 
z
" id="DejaVuSans-30" transform="scale(0.015625)"/>
       </defs>
       <use xlink:href="#DejaVuSans-2212"/>
       <use x="83.789062" xlink:href="#DejaVuSans-31"/>
       <use x="147.412109" xlink:href="#DejaVuSans-2e"/>
       <use x="179.199219" xlink:href="#DejaVuSans-30"/>
      </g>
     </g>
    </g>
    <g id="xtick_3">
     <g id="line2d_5">
      <path clip-path="url(#pc1155e320a)" d="M 182.086994 307.584 
L 182.086994 41.472 
" style="fill:none;stroke:#b0b0b0;stroke-dasharray:2.96,1.28;stroke-dashoffset:0;stroke-width:0.8;"/>
     </g>
     <g id="line2d_6">
      <g>
       <use style="stroke:#000000;stroke-width:0.8;" x="182.086994" xlink:href="#m63a989414b" y="307.584"/>
      </g>
     </g>
     <g id="text_3">
      <!-- −0.5 -->
      <g transform="translate(169.945588 322.182437)scale(0.1 -0.1)">
       <use xlink:href="#DejaVuSans-2212"/>
       <use x="83.789062" xlink:href="#DejaVuSans-30"/>
       <use x="147.412109" xlink:href="#DejaVuSans-2e"/>
       <use x="179.199219" xlink:href="#DejaVuSans-35"/>
      </g>
     </g>
    </g>
    <g id="xtick_4">
     <g id="line2d_7">
      <path clip-path="url(#pc1155e320a)" d="M 236.214127 307.584 
L 236.214127 41.472 
" style="fill:none;stroke:#b0b0b0;stroke-dasharray:2.96,1.28;stroke-dashoffset:0;stroke-width:0.8;"/>
     </g>
     <g id="line2d_8">
      <g>
       <use style="stroke:#000000;stroke-width:0.8;" x="236.214127" xlink:href="#m63a989414b" y="307.584"/>
      </g>
     </g>
     <g id="text_4">
      <!-- 0.0 -->
      <g transform="translate(228.262565 322.182437)scale(0.1 -0.1)">
       <use xlink:href="#DejaVuSans-30"/>
       <use x="63.623047" xlink:href="#DejaVuSans-2e"/>
       <use x="95.410156" xlink:href="#DejaVuSans-30"/>
      </g>
     </g>
    </g>
    <g id="xtick_5">
     <g id="line2d_9">
      <path clip-path="url(#pc1155e320a)" d="M 290.34126 307.584 
L 290.34126 41.472 
" style="fill:none;stroke:#b0b0b0;stroke-dasharray:2.96,1.28;stroke-dashoffset:0;stroke-width:0.8;"/>
     </g>
     <g id="line2d_10">
      <g>
       <use style="stroke:#000000;stroke-width:0.8;" x="290.34126" xlink:href="#m63a989414b" y="307.584"/>
      </g>
     </g>
     <g id="text_5">
      <!-- 0.5 -->
      <g transform="translate(282.389698 322.182437)scale(0.1 -0.1)">
       <use xlink:href="#DejaVuSans-30"/>
       <use x="63.623047" xlink:href="#DejaVuSans-2e"/>
       <use x="95.410156" xlink:href="#DejaVuSans-35"/>
      </g>
     </g>
    </g>
    <g id="xtick_6">
     <g id="line2d_11">
      <path clip-path="url(#pc1155e320a)" d="M 344.468394 307.584 
L 344.468394 41.472 
" style="fill:none;stroke:#b0b0b0;stroke-dasharray:2.96,1.28;stroke-dashoffset:0;stroke-width:0.8;"/>
     </g>
     <g id="line2d_12">
      <g>
       <use style="stroke:#000000;stroke-width:0.8;" x="344.468394" xlink:href="#m63a989414b" y="307.584"/>
      </g>
     </g>
     <g id="text_6">
      <!-- 1.0 -->
      <g transform="translate(336.516831 322.182437)scale(0.1 -0.1)">
       <use xlink:href="#DejaVuSans-31"/>
       <use x="63.623047" xlink:href="#DejaVuSans-2e"/>
       <use x="95.410156" xlink:href="#DejaVuSans-30"/>
      </g>
     </g>
    </g>
    <g id="xtick_7">
     <g id="line2d_13">
      <path clip-path="url(#pc1155e320a)" d="M 398.595527 307.584 
L 398.595527 41.472 
" style="fill:none;stroke:#b0b0b0;stroke-dasharray:2.96,1.28;stroke-dashoffset:0;stroke-width:0.8;"/>
     </g>
     <g id="line2d_14">
      <g>
       <use style="stroke:#000000;stroke-width:0.8;" x="398.595527" xlink:href="#m63a989414b" y="307.584"/>
      </g>
     </g>
     <g id="text_7">
      <!-- 1.5 -->
      <g transform="translate(390.643964 322.182437)scale(0.1 -0.1)">
       <use xlink:href="#DejaVuSans-31"/>
       <use x="63.623047" xlink:href="#DejaVuSans-2e"/>
       <use x="95.410156" xlink:href="#DejaVuSans-35"/>
      </g>
     </g>
    </g>
    <g id="text_8">
     <!-- X -->
     <g transform="translate(232.735 335.860562)scale(0.1 -0.1)">
      <defs>
       <path d="M 403 4666 
L 1081 4666 
L 2241 2931 
L 3406 4666 
L 4084 4666 
L 2584 2425 
L 4184 0 
L 3506 0 
L 2194 1984 
L 872 0 
L 191 0 
L 1856 2491 
L 403 4666 
z
" id="DejaVuSans-58" transform="scale(0.015625)"/>
      </defs>
      <use xlink:href="#DejaVuSans-58"/>
     </g>
    </g>
   </g>
   <g id="matplotlib.axis_2">
    <g id="ytick_1">
     <g id="line2d_15">
      <path clip-path="url(#pc1155e320a)" d="M 57.6 295.488 
L 414.72 295.488 
" style="fill:none;stroke:#b0b0b0;stroke-dasharray:2.96,1.28;stroke-dashoffset:0;stroke-width:0.8;"/>
     </g>
     <g id="line2d_16">
      <defs>
       <path d="M 0 0 
L -3.5 0 
" id="m7394f05df0" style="stroke:#000000;stroke-width:0.8;"/>
      </defs>
      <g>
       <use style="stroke:#000000;stroke-width:0.8;" x="57.6" xlink:href="#m7394f05df0" y="295.488"/>
      </g>
     </g>
     <g id="text_9">
      <!-- 0.0 -->
      <g transform="translate(34.696875 299.287219)scale(0.1 -0.1)">
       <use xlink:href="#DejaVuSans-30"/>
       <use x="63.623047" xlink:href="#DejaVuSans-2e"/>
       <use x="95.410156" xlink:href="#DejaVuSans-30"/>
      </g>
     </g>
    </g>
    <g id="ytick_2">
     <g id="line2d_17">
      <path clip-path="url(#pc1155e320a)" d="M 57.6 241.728 
L 414.72 241.728 
" style="fill:none;stroke:#b0b0b0;stroke-dasharray:2.96,1.28;stroke-dashoffset:0;stroke-width:0.8;"/>
     </g>
     <g id="line2d_18">
      <g>
       <use style="stroke:#000000;stroke-width:0.8;" x="57.6" xlink:href="#m7394f05df0" y="241.728"/>
      </g>
     </g>
     <g id="text_10">
      <!-- 0.5 -->
      <g transform="translate(34.696875 245.527219)scale(0.1 -0.1)">
       <use xlink:href="#DejaVuSans-30"/>
       <use x="63.623047" xlink:href="#DejaVuSans-2e"/>
       <use x="95.410156" xlink:href="#DejaVuSans-35"/>
      </g>
     </g>
    </g>
    <g id="ytick_3">
     <g id="line2d_19">
      <path clip-path="url(#pc1155e320a)" d="M 57.6 187.968 
L 414.72 187.968 
" style="fill:none;stroke:#b0b0b0;stroke-dasharray:2.96,1.28;stroke-dashoffset:0;stroke-width:0.8;"/>
     </g>
     <g id="line2d_20">
      <g>
       <use style="stroke:#000000;stroke-width:0.8;" x="57.6" xlink:href="#m7394f05df0" y="187.968"/>
      </g>
     </g>
     <g id="text_11">
      <!-- 1.0 -->
      <g transform="translate(34.696875 191.767219)scale(0.1 -0.1)">
       <use xlink:href="#DejaVuSans-31"/>
       <use x="63.623047" xlink:href="#DejaVuSans-2e"/>
       <use x="95.410156" xlink:href="#DejaVuSans-30"/>
      </g>
     </g>
    </g>
    <g id="ytick_4">
     <g id="line2d_21">
      <path clip-path="url(#pc1155e320a)" d="M 57.6 134.208 
L 414.72 134.208 
" style="fill:none;stroke:#b0b0b0;stroke-dasharray:2.96,1.28;stroke-dashoffset:0;stroke-width:0.8;"/>
     </g>
     <g id="line2d_22">
      <g>
       <use style="stroke:#000000;stroke-width:0.8;" x="57.6" xlink:href="#m7394f05df0" y="134.208"/>
      </g>
     </g>
     <g id="text_12">
      <!-- 1.5 -->
      <g transform="translate(34.696875 138.007219)scale(0.1 -0.1)">
       <use xlink:href="#DejaVuSans-31"/>
       <use x="63.623047" xlink:href="#DejaVuSans-2e"/>
       <use x="95.410156" xlink:href="#DejaVuSans-35"/>
      </g>
     </g>
    </g>
    <g id="ytick_5">
     <g id="line2d_23">
      <path clip-path="url(#pc1155e320a)" d="M 57.6 80.448 
L 414.72 80.448 
" style="fill:none;stroke:#b0b0b0;stroke-dasharray:2.96,1.28;stroke-dashoffset:0;stroke-width:0.8;"/>
     </g>
     <g id="line2d_24">
      <g>
       <use style="stroke:#000000;stroke-width:0.8;" x="57.6" xlink:href="#m7394f05df0" y="80.448"/>
      </g>
     </g>
     <g id="text_13">
      <!-- 2.0 -->
      <g transform="translate(34.696875 84.247219)scale(0.1 -0.1)">
       <defs>
        <path d="M 1228 531 
L 3431 531 
L 3431 0 
L 469 0 
L 469 531 
Q 828 903 1448 1529 
Q 2069 2156 2228 2338 
Q 2531 2678 2651 2914 
Q 2772 3150 2772 3378 
Q 2772 3750 2511 3984 
Q 2250 4219 1831 4219 
Q 1534 4219 1204 4116 
Q 875 4013 500 3803 
L 500 4441 
Q 881 4594 1212 4672 
Q 1544 4750 1819 4750 
Q 2544 4750 2975 4387 
Q 3406 4025 3406 3419 
Q 3406 3131 3298 2873 
Q 3191 2616 2906 2266 
Q 2828 2175 2409 1742 
Q 1991 1309 1228 531 
z
" id="DejaVuSans-32" transform="scale(0.015625)"/>
       </defs>
       <use xlink:href="#DejaVuSans-32"/>
       <use x="63.623047" xlink:href="#DejaVuSans-2e"/>
       <use x="95.410156" xlink:href="#DejaVuSans-30"/>
      </g>
     </g>
    </g>
    <g id="text_14">
     <!-- Y -->
     <g transform="translate(28.617188 177.581906)rotate(-90)scale(0.1 -0.1)">
      <defs>
       <path d="M -13 4666 
L 666 4666 
L 1959 2747 
L 3244 4666 
L 3922 4666 
L 2272 2222 
L 2272 0 
L 1638 0 
L 1638 2222 
L -13 4666 
z
" id="DejaVuSans-59" transform="scale(0.015625)"/>
      </defs>
      <use xlink:href="#DejaVuSans-59"/>
     </g>
    </g>
   </g>
   <g id="line2d_25">
    <path clip-path="url(#pc1155e320a)" d="M 73.832727 53.568 
L 80.00322 71.604588 
L 86.065459 88.644357 
L 92.019444 104.723436 
L 97.865174 119.877304 
L 103.602651 134.1408 
L 109.231872 147.548114 
L 114.75284 160.132792 
L 120.165553 171.927736 
L 125.470012 182.965202 
L 130.666217 193.2768 
L 135.754168 202.893496 
L 140.842118 212.035169 
L 145.821815 220.522368 
L 150.693257 228.384768 
L 155.456444 235.6514 
L 160.111378 242.350648 
L 164.658057 248.510254 
L 169.096482 254.157312 
L 173.426653 259.318272 
L 177.756823 264.135168 
L 181.97874 268.500372 
L 186.092402 272.439045 
L 190.09781 275.9757 
L 194.103217 279.217966 
L 198.000371 282.09004 
L 201.897525 284.683423 
L 205.686424 286.93758 
L 209.367069 288.87509 
L 213.047714 290.564014 
L 216.728359 292.004352 
L 220.30075 293.1646 
L 223.873141 294.09067 
L 227.445532 294.782561 
L 230.909668 295.229844 
L 234.373805 295.456927 
L 237.837941 295.463808 
L 241.302078 295.250488 
L 244.766214 294.816968 
L 248.230351 294.163246 
L 251.802742 293.258465 
L 255.375132 292.119506 
L 258.947523 290.746368 
L 262.519914 289.139052 
L 266.200559 287.238098 
L 269.881204 285.088558 
L 273.670103 282.616136 
L 277.459003 279.880289 
L 281.356156 276.791455 
L 285.361564 273.326408 
L 289.366972 269.566971 
L 293.480634 265.399496 
L 297.702551 260.799468 
L 301.924467 255.872364 
L 306.254638 250.47916 
L 310.693063 244.594053 
L 315.239742 238.190592 
L 319.894675 231.241682 
L 324.657863 223.719583 
L 329.421051 215.781166 
L 334.292493 207.231713 
L 339.272189 198.042194 
L 344.360139 188.182932 
L 349.556344 177.623608 
L 354.860803 166.333256 
L 360.273517 154.280264 
L 365.794484 141.432376 
L 371.423706 127.756692 
L 377.161182 113.219666 
L 383.006913 97.787105 
L 388.960897 81.424174 
L 394.914882 64.410747 
L 398.487273 53.890452 
L 398.487273 53.890452 
" style="fill:none;stroke:#000000;stroke-linecap:square;stroke-width:1.5;"/>
   </g>
   <g id="line2d_26">
    <path clip-path="url(#pc1155e320a)" d="M 344.468394 307.584 
L 344.468394 41.472 
" style="fill:none;stroke:#1f77b4;stroke-dasharray:5.55,2.4;stroke-dashoffset:0;stroke-width:1.5;"/>
   </g>
   <g id="line2d_27">
    <path clip-path="url(#pc1155e320a)" d="M 57.6 187.968 
L 414.72 187.968 
" style="fill:none;stroke:#1f77b4;stroke-dasharray:5.55,2.4;stroke-dashoffset:0;stroke-width:1.5;"/>
   </g>
   <g id="patch_3">
    <path d="M 57.6 307.584 
L 57.6 41.472 
" style="fill:none;stroke:#000000;stroke-linecap:square;stroke-linejoin:miter;stroke-width:0.8;"/>
   </g>
   <g id="patch_4">
    <path d="M 414.72 307.584 
L 414.72 41.472 
" style="fill:none;stroke:#000000;stroke-linecap:square;stroke-linejoin:miter;stroke-width:0.8;"/>
   </g>
   <g id="patch_5">
    <path d="M 57.6 307.584 
L 414.72 307.584 
" style="fill:none;stroke:#000000;stroke-linecap:square;stroke-linejoin:miter;stroke-width:0.8;"/>
   </g>
   <g id="patch_6">
    <path d="M 57.6 41.472 
L 414.72 41.472 
" style="fill:none;stroke:#000000;stroke-linecap:square;stroke-linejoin:miter;stroke-width:0.8;"/>
   </g>
   <g id="text_15">
    <!-- y = x^2 -->
    <g transform="translate(211.370625 35.472)scale(0.12 -0.12)">
     <defs>
      <path d="M 2059 -325 
Q 1816 -950 1584 -1140 
Q 1353 -1331 966 -1331 
L 506 -1331 
L 506 -850 
L 844 -850 
Q 1081 -850 1212 -737 
Q 1344 -625 1503 -206 
L 1606 56 
L 191 3500 
L 800 3500 
L 1894 763 
L 2988 3500 
L 3597 3500 
L 2059 -325 
z
" id="DejaVuSans-79" transform="scale(0.015625)"/>
      <path id="DejaVuSans-20" transform="scale(0.015625)"/>
      <path d="M 678 2906 
L 4684 2906 
L 4684 2381 
L 678 2381 
L 678 2906 
z
M 678 1631 
L 4684 1631 
L 4684 1100 
L 678 1100 
L 678 1631 
z
" id="DejaVuSans-3d" transform="scale(0.015625)"/>
      <path d="M 3513 3500 
L 2247 1797 
L 3578 0 
L 2900 0 
L 1881 1375 
L 863 0 
L 184 0 
L 1544 1831 
L 300 3500 
L 978 3500 
L 1906 2253 
L 2834 3500 
L 3513 3500 
z
" id="DejaVuSans-78" transform="scale(0.015625)"/>
      <path d="M 2988 4666 
L 4684 2925 
L 4056 2925 
L 2681 4159 
L 1306 2925 
L 678 2925 
L 2375 4666 
L 2988 4666 
z
" id="DejaVuSans-5e" transform="scale(0.015625)"/>
     </defs>
     <use xlink:href="#DejaVuSans-79"/>
     <use x="59.179688" xlink:href="#DejaVuSans-20"/>
     <use x="90.966797" xlink:href="#DejaVuSans-3d"/>
     <use x="174.755859" xlink:href="#DejaVuSans-20"/>
     <use x="206.542969" xlink:href="#DejaVuSans-78"/>
     <use x="265.722656" xlink:href="#DejaVuSans-5e"/>
     <use x="349.511719" xlink:href="#DejaVuSans-32"/>
    </g>
   </g>
   <g id="legend_1">
    <g id="patch_7">
     <path d="M 64.6 302.584 
L 131.559375 302.584 
Q 133.559375 302.584 133.559375 300.584 
L 133.559375 286.905875 
Q 133.559375 284.905875 131.559375 284.905875 
L 64.6 284.905875 
Q 62.6 284.905875 62.6 286.905875 
L 62.6 300.584 
Q 62.6 302.584 64.6 302.584 
z
" style="fill:#ffffff;opacity:0.8;stroke:#cccccc;stroke-linejoin:miter;"/>
    </g>
    <g id="line2d_28">
     <path d="M 66.6 293.004312 
L 86.6 293.004312 
" style="fill:none;stroke:#000000;stroke-linecap:square;stroke-width:1.5;"/>
    </g>
    <g id="line2d_29"/>
    <g id="text_16">
     <!-- y=x^2 -->
     <g transform="translate(94.6 296.504312)scale(0.1 -0.1)">
      <use xlink:href="#DejaVuSans-79"/>
      <use x="59.179688" xlink:href="#DejaVuSans-3d"/>
      <use x="142.96875" xlink:href="#DejaVuSans-78"/>
      <use x="202.148438" xlink:href="#DejaVuSans-5e"/>
      <use x="285.9375" xlink:href="#DejaVuSans-32"/>
     </g>
    </g>
   </g>
  </g>
 </g>
 <defs>
  <clipPath id="pc1155e320a">
   <rect height="266.112" width="357.12" x="57.6" y="41.472"/>
  </clipPath>
 </defs>
</svg>
